<svg xmlns="http://www.w3.org/2000/svg" width="21.58" height="21.5" viewBox="0 0 21.58 21.5"><g transform="translate(0 10.71)"><path d="M20.231,255.051H1.349a1.349,1.349,0,1,0,0,2.7H20.231a1.349,1.349,0,1,0,0-2.7Z" transform="translate(0 -255.051)" fill="#9c9c9c"/></g><g transform="translate(0.899 12.508)"><path d="M40.78,297.727a.447.447,0,0,0-.556.309l-.035.123H22.241l-.036-.123a.449.449,0,1,0-.864.246l1.239,4.338a3.16,3.16,0,0,0,3.026,2.283H36.822a3.16,3.16,0,0,0,3.026-2.283l1.239-4.338A.449.449,0,0,0,40.78,297.727ZM25.606,303.1a1.353,1.353,0,0,1-1.3-.978l-.584-2.045a.449.449,0,1,1,.864-.246l.584,2.045a.453.453,0,0,0,.432.326.449.449,0,1,1,0,.9Z" transform="translate(-21.323 -297.709)" fill="#9c9c9c"/></g><g transform="translate(4.495 18.803)"><path d="M108.2,447.1a.452.452,0,0,0-.6.2l-.9,1.8a.45.45,0,1,0,.8.4l.9-1.8A.45.45,0,0,0,108.2,447.1Z" transform="translate(-106.654 -447.053)" fill="#9c9c9c"/></g><g transform="translate(15.286 18.803)"><path d="M364.426,449.1l-.9-1.8a.45.45,0,1,0-.8.4l.9,1.8a.449.449,0,0,0,.4.248.465.465,0,0,0,.2-.047A.45.45,0,0,0,364.426,449.1Z" transform="translate(-362.675 -447.055)" fill="#9c9c9c"/></g><g transform="translate(15.286 0)"><path d="M365.456.949a1.707,1.707,0,0,0-1.215.5L362.815,2.88a.45.45,0,0,0,.636.636l1.427-1.426a.821.821,0,0,1,1.4.578v9.441a.45.45,0,0,0,.9,0V2.666A1.72,1.72,0,0,0,365.456.949Z" transform="translate(-362.683 -0.949)" fill="#9c9c9c"/></g><g transform="translate(12.588 1.349)"><path d="M302.571,33.982l-.9-.9a.445.445,0,0,0-.391-.126l-2.248.369a.449.449,0,0,0-.25.756l2.7,2.778a.45.45,0,0,0,.763-.225l.45-2.248A.45.45,0,0,0,302.571,33.982Z" transform="translate(-298.656 -32.951)" fill="#9c9c9c"/></g><g transform="translate(8.991 5.316)"><path d="M214.994,127.2a.45.45,0,0,0-.636,0l-.9.9a.45.45,0,0,0,.636.636l.9-.9A.45.45,0,0,0,214.994,127.2Z" transform="translate(-213.328 -127.067)" fill="#9c9c9c"/></g><g transform="translate(10.79 7.114)"><path d="M257.661,169.865a.45.45,0,0,0-.636,0l-.9.9a.45.45,0,0,0,.636.636l.9-.9A.45.45,0,0,0,257.661,169.865Z" transform="translate(-255.995 -169.733)" fill="#9c9c9c"/></g><g transform="translate(11.689 4.416)"><path d="M278.994,105.864a.45.45,0,0,0-.636,0l-.9.9a.45.45,0,0,0,.636.636l.9-.9A.45.45,0,0,0,278.994,105.864Z" transform="translate(-277.328 -105.733)" fill="#9c9c9c"/></g></svg>