<svg xmlns="http://www.w3.org/2000/svg" width="20.302" height="14.275" viewBox="0 0 20.302 14.275"><g transform="translate(0 0)"><path d="M2.379,84.327V76H0V90.275H2.379V87.9H17.923v2.379H20.3V84.327Z" transform="translate(0 -76)" fill="#9c9c9c"/></g><g transform="translate(3.569 3.569)"><path d="M91.784,166A1.784,1.784,0,0,0,90,167.784v1.784h3.569v-1.784A1.784,1.784,0,0,0,91.784,166Z" transform="translate(-90 -166)" fill="#9c9c9c"/></g><g transform="translate(8.327 3.569)"><path d="M220.191,166h-8.406A1.784,1.784,0,0,0,210,167.784v1.784h11.975v-1.784A1.784,1.784,0,0,0,220.191,166Z" transform="translate(-210 -166)" fill="#9c9c9c"/></g></svg>