<svg xmlns="http://www.w3.org/2000/svg" width="21.883" height="19.147" viewBox="0 0 21.883 19.147"><path d="M20.233,7.066,18.7,1.95A2.719,2.719,0,0,0,16.078,0H5.8a2.719,2.719,0,0,0-2.62,1.95L1.649,7.066A2.737,2.737,0,0,0,0,9.574v5.471a1.368,1.368,0,0,0,1.368,1.368h0V17.78a1.368,1.368,0,0,0,1.368,1.368H4.1A1.368,1.368,0,0,0,5.471,17.78V16.412H16.412V17.78a1.368,1.368,0,0,0,1.368,1.368h1.368a1.368,1.368,0,0,0,1.368-1.368V16.412h0a1.368,1.368,0,0,0,1.368-1.368V9.574a2.737,2.737,0,0,0-1.649-2.508ZM5.8,2.735H16.078l1.231,4.1H4.574L5.8,2.735ZM5.471,12.993a1.368,1.368,0,1,1,1.368-1.368A1.368,1.368,0,0,1,5.471,12.993Zm10.941,0a1.368,1.368,0,1,1,1.368-1.368A1.368,1.368,0,0,1,16.412,12.993Z" fill="#9c9c9c"/></svg>