<svg xmlns="http://www.w3.org/2000/svg" width="31.071" height="31.071" viewBox="0 0 31.071 31.071"><path d="M43.877,5.3,38.035,8.877a43.138,43.138,0,0,0,10.036,4.195ZM32.536-18C24.115-18,17-11.537,17-3.769c0,8.42,7.115,14.231,15.536,14.231S48.071,4.651,48.071-3.769C48.071-11.537,40.956-18,32.536-18Zm0,4.536c3.231,0,5.841,1.926,5.841,5.841,0,3.231-3.884,4.536-3.884,7.115H30.609c0-4.536,3.884-5.189,3.884-7.115a1.7,1.7,0,0,0-1.926-1.926c-1.274,0-1.926.652-1.926,2.579H26.694A5.627,5.627,0,0,1,32.536-13.464Zm0,14.883A2.773,2.773,0,0,1,35.115,4a2.8,2.8,0,0,1-2.579,2.579A2.8,2.8,0,0,1,29.957,4,2.773,2.773,0,0,1,32.536,1.42Z" transform="translate(-17 18)" fill="#fff"/></svg>